<?xml version="1.0" encoding="UTF-8" standalone="no"?>
<!DOCTYPE svg PUBLIC "-//W3C//DTD SVG 1.1//EN"
 "http://www.w3.org/Graphics/SVG/1.1/DTD/svg11.dtd">
<!-- Generated by graphviz version 8.0.1 (20230327.1645)
 -->
<!-- Title: snakemake_dag Pages: 1 -->
<svg width="2091pt" height="188pt"
 viewBox="0.00 0.00 2091.00 188.00" xmlns="http://www.w3.org/2000/svg" xmlns:xlink="http://www.w3.org/1999/xlink">
<g id="graph0" class="graph" transform="scale(1 1) rotate(0) translate(4 184)">
<title>snakemake_dag</title>
<polygon fill="white" stroke="none" points="-4,4 -4,-184 2087,-184 2087,4 -4,4"/>
<!-- 0 -->
<g id="node1" class="node">
<title>0</title>
<path fill="none" stroke="#56a2d8" stroke-width="2" d="M913,-36C913,-36 883,-36 883,-36 877,-36 871,-30 871,-24 871,-24 871,-12 871,-12 871,-6 877,0 883,0 883,0 913,0 913,0 919,0 925,-6 925,-12 925,-12 925,-24 925,-24 925,-30 919,-36 913,-36"/>
<text text-anchor="middle" x="898" y="-15.5" font-family="sans" font-size="10.00">all</text>
</g>
<!-- 1 -->
<g id="node2" class="node">
<title>1</title>
<path fill="none" stroke="#d85656" stroke-width="2" d="M854,-108C854,-108 824,-108 824,-108 818,-108 812,-102 812,-96 812,-96 812,-84 812,-84 812,-78 818,-72 824,-72 824,-72 854,-72 854,-72 860,-72 866,-78 866,-84 866,-84 866,-96 866,-96 866,-102 860,-108 854,-108"/>
<text text-anchor="middle" x="839" y="-87.5" font-family="sans" font-size="10.00">multiqc</text>
</g>
<!-- 1&#45;&gt;0 -->
<g id="edge2" class="edge">
<title>1&#45;&gt;0</title>
<path fill="none" stroke="grey" stroke-width="2" d="M853.89,-71.34C860.2,-63.85 867.7,-54.95 874.71,-46.63"/>
<polygon fill="grey" stroke="grey" stroke-width="2" points="878.14,-48.8 881.91,-38.9 872.79,-44.29 878.14,-48.8"/>
</g>
<!-- 2 -->
<g id="node3" class="node">
<title>2</title>
<path fill="none" stroke="#d8bc56" stroke-width="2" d="M42,-180C42,-180 12,-180 12,-180 6,-180 0,-174 0,-168 0,-168 0,-156 0,-156 0,-150 6,-144 12,-144 12,-144 42,-144 42,-144 48,-144 54,-150 54,-156 54,-156 54,-168 54,-168 54,-174 48,-180 42,-180"/>
<text text-anchor="middle" x="27" y="-159.5" font-family="sans" font-size="10.00">peddy</text>
</g>
<!-- 2&#45;&gt;0 -->
<g id="edge4" class="edge">
<title>2&#45;&gt;0</title>
<path fill="none" stroke="grey" stroke-width="2" d="M54.99,-146.83C57.66,-145.77 60.35,-144.8 63,-144 359.39,-53.97 735.45,-27.4 857.67,-20.87"/>
<polygon fill="grey" stroke="grey" stroke-width="2" points="857.52,-24.22 867.33,-20.21 857.16,-17.23 857.52,-24.22"/>
</g>
<!-- 2&#45;&gt;1 -->
<g id="edge13" class="edge">
<title>2&#45;&gt;1</title>
<path fill="none" stroke="grey" stroke-width="2" d="M54.92,-146.6C57.61,-145.59 60.32,-144.7 63,-144 134.36,-125.42 648.9,-99.96 798.38,-92.89"/>
<polygon fill="grey" stroke="grey" stroke-width="2" points="798.46,-96.25 808.29,-92.28 798.13,-89.26 798.46,-96.25"/>
</g>
<!-- 3 -->
<g id="node4" class="node">
<title>3</title>
<path fill="none" stroke="#59d856" stroke-width="2" d="M197.5,-180C197.5,-180 84.5,-180 84.5,-180 78.5,-180 72.5,-174 72.5,-168 72.5,-168 72.5,-156 72.5,-156 72.5,-150 78.5,-144 84.5,-144 84.5,-144 197.5,-144 197.5,-144 203.5,-144 209.5,-150 209.5,-156 209.5,-156 209.5,-168 209.5,-168 209.5,-174 203.5,-180 197.5,-180"/>
<text text-anchor="middle" x="141" y="-159.5" font-family="sans" font-size="10.00">picard_collect_wgs_metrics</text>
</g>
<!-- 3&#45;&gt;1 -->
<g id="edge16" class="edge">
<title>3&#45;&gt;1</title>
<path fill="none" stroke="grey" stroke-width="2" d="M210.24,-145.42C213.19,-144.91 216.12,-144.43 219,-144 435.79,-111.25 698.52,-97.12 798.1,-92.67"/>
<polygon fill="grey" stroke="grey" stroke-width="2" points="798.2,-96.03 808.04,-92.1 797.9,-89.04 798.2,-96.03"/>
</g>
<!-- 4 -->
<g id="node5" class="node">
<title>4</title>
<path fill="none" stroke="#5673d8" stroke-width="2" d="M270,-180C270,-180 240,-180 240,-180 234,-180 228,-174 228,-168 228,-168 228,-156 228,-156 228,-150 234,-144 240,-144 240,-144 270,-144 270,-144 276,-144 282,-150 282,-156 282,-156 282,-168 282,-168 282,-174 276,-180 270,-180"/>
<text text-anchor="middle" x="255" y="-159.5" font-family="sans" font-size="10.00">fastqc</text>
</g>
<!-- 4&#45;&gt;1 -->
<g id="edge9" class="edge">
<title>4&#45;&gt;1</title>
<path fill="none" stroke="grey" stroke-width="2" d="M282.95,-146.68C285.62,-145.65 288.33,-144.73 291,-144 475.26,-93.24 705.99,-89.44 798.19,-90.21"/>
<polygon fill="grey" stroke="grey" stroke-width="2" points="797.98,-93.74 808.02,-90.36 798.06,-86.74 797.98,-93.74"/>
</g>
<!-- 5 -->
<g id="node6" class="node">
<title>5</title>
<path fill="none" stroke="#d88d56" stroke-width="2" d="M368,-180C368,-180 312,-180 312,-180 306,-180 300,-174 300,-168 300,-168 300,-156 300,-156 300,-150 306,-144 312,-144 312,-144 368,-144 368,-144 374,-144 380,-150 380,-156 380,-156 380,-168 380,-168 380,-174 374,-180 368,-180"/>
<text text-anchor="middle" x="340" y="-159.5" font-family="sans" font-size="10.00">mosdepth_bed</text>
</g>
<!-- 5&#45;&gt;1 -->
<g id="edge7" class="edge">
<title>5&#45;&gt;1</title>
<path fill="none" stroke="grey" stroke-width="2" d="M380.98,-146.06C383.68,-145.3 386.37,-144.6 389,-144 537.58,-109.9 719.08,-97.06 798.52,-92.83"/>
<polygon fill="grey" stroke="grey" stroke-width="2" points="798.44,-96.18 808.25,-92.18 798.09,-89.19 798.44,-96.18"/>
</g>
<!-- 6 -->
<g id="node7" class="node">
<title>6</title>
<path fill="none" stroke="#56d8a2" stroke-width="2" d="M552,-180C552,-180 410,-180 410,-180 404,-180 398,-174 398,-168 398,-168 398,-156 398,-156 398,-150 404,-144 410,-144 410,-144 552,-144 552,-144 558,-144 564,-150 564,-156 564,-156 564,-168 564,-168 564,-174 558,-180 552,-180"/>
<text text-anchor="middle" x="481" y="-159.5" font-family="sans" font-size="10.00">picard_collect_duplication_metrics</text>
</g>
<!-- 6&#45;&gt;1 -->
<g id="edge6" class="edge">
<title>6&#45;&gt;1</title>
<path fill="none" stroke="grey" stroke-width="2" d="M564.94,-144.59C638.41,-130.22 741.98,-109.97 798.43,-98.93"/>
<polygon fill="grey" stroke="grey" stroke-width="2" points="799.91,-101.82 809.06,-96.46 798.57,-94.95 799.91,-101.82"/>
</g>
<!-- 7 -->
<g id="node8" class="node">
<title>7</title>
<path fill="none" stroke="#a7d856" stroke-width="2" d="M723.5,-180C723.5,-180 594.5,-180 594.5,-180 588.5,-180 582.5,-174 582.5,-168 582.5,-168 582.5,-156 582.5,-156 582.5,-150 588.5,-144 594.5,-144 594.5,-144 723.5,-144 723.5,-144 729.5,-144 735.5,-150 735.5,-156 735.5,-156 735.5,-168 735.5,-168 735.5,-174 729.5,-180 723.5,-180"/>
<text text-anchor="middle" x="659" y="-159.5" font-family="sans" font-size="10.00">picard_collect_gc_bias_metrics</text>
</g>
<!-- 7&#45;&gt;1 -->
<g id="edge10" class="edge">
<title>7&#45;&gt;1</title>
<path fill="none" stroke="grey" stroke-width="2" d="M704.89,-143.15C733.97,-131.84 771.22,-117.36 799.08,-106.52"/>
<polygon fill="grey" stroke="grey" stroke-width="2" points="801.11,-109.71 809.16,-102.83 798.57,-103.19 801.11,-109.71"/>
</g>
<!-- 8 -->
<g id="node9" class="node">
<title>8</title>
<path fill="none" stroke="#56d8d8" stroke-width="2" d="M800.5,-180C800.5,-180 765.5,-180 765.5,-180 759.5,-180 753.5,-174 753.5,-168 753.5,-168 753.5,-156 753.5,-156 753.5,-150 759.5,-144 765.5,-144 765.5,-144 800.5,-144 800.5,-144 806.5,-144 812.5,-150 812.5,-156 812.5,-156 812.5,-168 812.5,-168 812.5,-174 806.5,-180 800.5,-180"/>
<text text-anchor="middle" x="783" y="-159.5" font-family="sans" font-size="10.00">mosdepth</text>
</g>
<!-- 8&#45;&gt;1 -->
<g id="edge11" class="edge">
<title>8&#45;&gt;1</title>
<path fill="none" stroke="grey" stroke-width="2" d="M797.13,-143.34C803.05,-135.93 810.09,-127.14 816.68,-118.9"/>
<polygon fill="grey" stroke="grey" stroke-width="2" points="820.16,-120.9 823.68,-110.9 814.7,-116.52 820.16,-120.9"/>
</g>
<!-- 9 -->
<g id="node10" class="node">
<title>9</title>
<path fill="none" stroke="#56d8c1" stroke-width="2" d="M949,-180C949,-180 843,-180 843,-180 837,-180 831,-174 831,-168 831,-168 831,-156 831,-156 831,-150 837,-144 843,-144 843,-144 949,-144 949,-144 955,-144 961,-150 961,-156 961,-156 961,-168 961,-168 961,-174 955,-180 949,-180"/>
<text text-anchor="middle" x="896" y="-159.5" font-family="sans" font-size="10.00">picard_collect_hs_metrics</text>
</g>
<!-- 9&#45;&gt;1 -->
<g id="edge8" class="edge">
<title>9&#45;&gt;1</title>
<path fill="none" stroke="grey" stroke-width="2" d="M881.62,-143.34C875.59,-135.93 868.43,-127.14 861.72,-118.9"/>
<polygon fill="grey" stroke="grey" stroke-width="2" points="863.61,-116.45 854.58,-110.9 858.18,-120.87 863.61,-116.45"/>
</g>
<!-- 10 -->
<g id="node11" class="node">
<title>10</title>
<path fill="none" stroke="#d86e56" stroke-width="2" d="M1050.5,-180C1050.5,-180 991.5,-180 991.5,-180 985.5,-180 979.5,-174 979.5,-168 979.5,-168 979.5,-156 979.5,-156 979.5,-150 985.5,-144 991.5,-144 991.5,-144 1050.5,-144 1050.5,-144 1056.5,-144 1062.5,-150 1062.5,-156 1062.5,-156 1062.5,-168 1062.5,-168 1062.5,-174 1056.5,-180 1050.5,-180"/>
<text text-anchor="middle" x="1021" y="-159.5" font-family="sans" font-size="10.00">samtools_stats</text>
</g>
<!-- 10&#45;&gt;1 -->
<g id="edge5" class="edge">
<title>10&#45;&gt;1</title>
<path fill="none" stroke="grey" stroke-width="2" d="M978.75,-146.83C952.14,-137.65 916.87,-125.01 878.72,-109.38"/>
<polygon fill="grey" stroke="grey" stroke-width="2" points="879.37,-106.04 868.79,-105.44 876.69,-112.5 879.37,-106.04"/>
</g>
<!-- 11 -->
<g id="node12" class="node">
<title>11</title>
<path fill="none" stroke="#d8a456" stroke-width="2" d="M1275.5,-180C1275.5,-180 1092.5,-180 1092.5,-180 1086.5,-180 1080.5,-174 1080.5,-168 1080.5,-168 1080.5,-156 1080.5,-156 1080.5,-150 1086.5,-144 1092.5,-144 1092.5,-144 1275.5,-144 1275.5,-144 1281.5,-144 1287.5,-150 1287.5,-156 1287.5,-156 1287.5,-168 1287.5,-168 1287.5,-174 1281.5,-180 1275.5,-180"/>
<text text-anchor="middle" x="1184" y="-159.5" font-family="sans" font-size="10.00">picard_collect_alignment_summary_metrics</text>
</g>
<!-- 11&#45;&gt;1 -->
<g id="edge12" class="edge">
<title>11&#45;&gt;1</title>
<path fill="none" stroke="grey" stroke-width="2" d="M1079.77,-144.55C1007.33,-132.91 918.07,-118.08 879.12,-108.43"/>
<polygon fill="grey" stroke="grey" stroke-width="2" points="879.18,-104.26 868.61,-104.95 877.3,-111 879.18,-104.26"/>
</g>
<!-- 12 -->
<g id="node13" class="node">
<title>12</title>
<path fill="none" stroke="#56d873" stroke-width="2" d="M1446.5,-180C1446.5,-180 1317.5,-180 1317.5,-180 1311.5,-180 1305.5,-174 1305.5,-168 1305.5,-168 1305.5,-156 1305.5,-156 1305.5,-150 1311.5,-144 1317.5,-144 1317.5,-144 1446.5,-144 1446.5,-144 1452.5,-144 1458.5,-150 1458.5,-156 1458.5,-156 1458.5,-168 1458.5,-168 1458.5,-174 1452.5,-180 1446.5,-180"/>
<text text-anchor="middle" x="1382" y="-159.5" font-family="sans" font-size="10.00">picard_collect_multiple_metrics</text>
</g>
<!-- 12&#45;&gt;1 -->
<g id="edge17" class="edge">
<title>12&#45;&gt;1</title>
<path fill="none" stroke="grey" stroke-width="2" d="M1304.7,-145.16C1302.1,-144.75 1299.53,-144.36 1297,-144 1114.73,-118.08 1059.19,-155.26 879.26,-108.62"/>
<polygon fill="grey" stroke="grey" stroke-width="2" points="879.5,-104.53 868.94,-105.35 877.7,-111.3 879.5,-104.53"/>
</g>
<!-- 13 -->
<g id="node14" class="node">
<title>13</title>
<path fill="none" stroke="#56c1d8" stroke-width="2" d="M1631.5,-180C1631.5,-180 1488.5,-180 1488.5,-180 1482.5,-180 1476.5,-174 1476.5,-168 1476.5,-168 1476.5,-156 1476.5,-156 1476.5,-150 1482.5,-144 1488.5,-144 1488.5,-144 1631.5,-144 1631.5,-144 1637.5,-144 1643.5,-150 1643.5,-156 1643.5,-156 1643.5,-168 1643.5,-168 1643.5,-174 1637.5,-180 1631.5,-180"/>
<text text-anchor="middle" x="1560" y="-159.5" font-family="sans" font-size="10.00">picard_collect_insert_size_metrics</text>
</g>
<!-- 13&#45;&gt;1 -->
<g id="edge14" class="edge">
<title>13&#45;&gt;1</title>
<path fill="none" stroke="grey" stroke-width="2" d="M1475.83,-145.02C1473.2,-144.66 1470.58,-144.32 1468,-144 1210.01,-112.45 1133.17,-171.65 879.15,-108.52"/>
<polygon fill="grey" stroke="grey" stroke-width="2" points="879.47,-104.48 868.92,-105.42 877.75,-111.27 879.47,-104.48"/>
</g>
<!-- 14 -->
<g id="node15" class="node">
<title>14</title>
<path fill="none" stroke="#56d88a" stroke-width="2" d="M1758.5,-180C1758.5,-180 1673.5,-180 1673.5,-180 1667.5,-180 1661.5,-174 1661.5,-168 1661.5,-168 1661.5,-156 1661.5,-156 1661.5,-150 1667.5,-144 1673.5,-144 1673.5,-144 1758.5,-144 1758.5,-144 1764.5,-144 1770.5,-150 1770.5,-156 1770.5,-156 1770.5,-168 1770.5,-168 1770.5,-174 1764.5,-180 1758.5,-180"/>
<text text-anchor="middle" x="1716" y="-159.5" font-family="sans" font-size="10.00">rseqc_inner_distance</text>
</g>
<!-- 14&#45;&gt;1 -->
<g id="edge18" class="edge">
<title>14&#45;&gt;1</title>
<path fill="none" stroke="grey" stroke-width="2" d="M1660.83,-145.39C1658.19,-144.87 1655.57,-144.4 1653,-144 1315.17,-91.25 1213.4,-189.09 879.4,-108.53"/>
<polygon fill="grey" stroke="grey" stroke-width="2" points="879.45,-104.45 868.91,-105.46 877.78,-111.24 879.45,-104.45"/>
</g>
<!-- 15 -->
<g id="node16" class="node">
<title>15</title>
<path fill="none" stroke="#88d856" stroke-width="2" d="M1915,-180C1915,-180 1801,-180 1801,-180 1795,-180 1789,-174 1789,-168 1789,-168 1789,-156 1789,-156 1789,-150 1795,-144 1801,-144 1801,-144 1915,-144 1915,-144 1921,-144 1927,-150 1927,-156 1927,-156 1927,-168 1927,-168 1927,-174 1921,-180 1915,-180"/>
<text text-anchor="middle" x="1858" y="-159.5" font-family="sans" font-size="10.00">rseqc_gene_body_coverage</text>
</g>
<!-- 15&#45;&gt;1 -->
<g id="edge15" class="edge">
<title>15&#45;&gt;1</title>
<path fill="none" stroke="grey" stroke-width="2" d="M1788.36,-145.19C1785.55,-144.75 1782.75,-144.35 1780,-144 1584.35,-118.98 1090.77,-154.46 879.49,-108.4"/>
<polygon fill="grey" stroke="grey" stroke-width="2" points="879.44,-104.33 868.9,-105.48 877.85,-111.15 879.44,-104.33"/>
</g>
<!-- 16 -->
<g id="node17" class="node">
<title>16</title>
<path fill="none" stroke="#d6d856" stroke-width="2" d="M1018,-108C1018,-108 896,-108 896,-108 890,-108 884,-102 884,-96 884,-96 884,-84 884,-84 884,-78 890,-72 896,-72 896,-72 1018,-72 1018,-72 1024,-72 1030,-78 1030,-84 1030,-84 1030,-96 1030,-96 1030,-102 1024,-108 1018,-108"/>
<text text-anchor="middle" x="957" y="-87.5" font-family="sans" font-size="10.00">gatk_calculate_contamination</text>
</g>
<!-- 16&#45;&gt;0 -->
<g id="edge3" class="edge">
<title>16&#45;&gt;0</title>
<path fill="none" stroke="grey" stroke-width="2" d="M942.11,-71.34C935.8,-63.85 928.3,-54.95 921.29,-46.63"/>
<polygon fill="grey" stroke="grey" stroke-width="2" points="923.21,-44.29 914.09,-38.9 917.86,-48.8 923.21,-44.29"/>
</g>
<!-- 17 -->
<g id="node18" class="node">
<title>17</title>
<path fill="none" stroke="#568ad8" stroke-width="2" d="M2071,-180C2071,-180 1957,-180 1957,-180 1951,-180 1945,-174 1945,-168 1945,-168 1945,-156 1945,-156 1945,-150 1951,-144 1957,-144 1957,-144 2071,-144 2071,-144 2077,-144 2083,-150 2083,-156 2083,-156 2083,-168 2083,-168 2083,-174 2077,-180 2071,-180"/>
<text text-anchor="middle" x="2014" y="-159.5" font-family="sans" font-size="10.00">gatk_get_pileup_summaries</text>
</g>
<!-- 17&#45;&gt;16 -->
<g id="edge19" class="edge">
<title>17&#45;&gt;16</title>
<path fill="none" stroke="grey" stroke-width="2" d="M1944.36,-145.19C1941.55,-144.75 1938.75,-144.35 1936,-144 1544.4,-93.86 1437.25,-155.34 1043.3,-108.4"/>
<polygon fill="grey" stroke="grey" stroke-width="2" points="1044.01,-104.6 1033.66,-106.87 1043.17,-111.54 1044.01,-104.6"/>
</g>
<!-- 18 -->
<g id="node19" class="node">
<title>18</title>
<path fill="none" stroke="#70d856" stroke-width="2" d="M1108,-108C1108,-108 1060,-108 1060,-108 1054,-108 1048,-102 1048,-96 1048,-96 1048,-84 1048,-84 1048,-78 1054,-72 1060,-72 1060,-72 1108,-72 1108,-72 1114,-72 1120,-78 1120,-84 1120,-84 1120,-96 1120,-96 1120,-102 1114,-108 1108,-108"/>
<text text-anchor="middle" x="1084" y="-87.5" font-family="sans" font-size="10.00">verifybamid2</text>
</g>
<!-- 18&#45;&gt;0 -->
<g id="edge1" class="edge">
<title>18&#45;&gt;0</title>
<path fill="none" stroke="grey" stroke-width="2" d="M1047.16,-75.08C1044.4,-74.04 1041.66,-73 1039,-72 1004.79,-59.11 965.89,-44.49 937.63,-33.88"/>
<polygon fill="grey" stroke="grey" stroke-width="2" points="938.42,-30.68 927.83,-30.44 935.96,-37.24 938.42,-30.68"/>
</g>
</g>
</svg>
