<?xml version="1.0" encoding="UTF-8" standalone="no"?>
<!DOCTYPE svg PUBLIC "-//W3C//DTD SVG 1.1//EN"
 "http://www.w3.org/Graphics/SVG/1.1/DTD/svg11.dtd">
<!-- Generated by graphviz version 2.40.1 (20161225.0304)
 -->
<!-- Title: snakemake_dag Pages: 1 -->
<svg width="2207pt" height="188pt"
 viewBox="0.00 0.00 2207.00 188.00" xmlns="http://www.w3.org/2000/svg" xmlns:xlink="http://www.w3.org/1999/xlink">
<g id="graph0" class="graph" transform="scale(1 1) rotate(0) translate(4 184)">
<title>snakemake_dag</title>
<polygon fill="#ffffff" stroke="transparent" points="-4,4 -4,-184 2203,-184 2203,4 -4,4"/>
<!-- 0 -->
<g id="node1" class="node">
<title>0</title>
<path fill="none" stroke="#56d863" stroke-width="2" d="M1681.5,-36C1681.5,-36 1651.5,-36 1651.5,-36 1645.5,-36 1639.5,-30 1639.5,-24 1639.5,-24 1639.5,-12 1639.5,-12 1639.5,-6 1645.5,0 1651.5,0 1651.5,0 1681.5,0 1681.5,0 1687.5,0 1693.5,-6 1693.5,-12 1693.5,-12 1693.5,-24 1693.5,-24 1693.5,-30 1687.5,-36 1681.5,-36"/>
<text text-anchor="middle" x="1666.5" y="-15.5" font-family="sans" font-size="10.00" fill="#000000">all</text>
</g>
<!-- 1 -->
<g id="node2" class="node">
<title>1</title>
<path fill="none" stroke="#568ad8" stroke-width="2" d="M1100.5,-108C1100.5,-108 1070.5,-108 1070.5,-108 1064.5,-108 1058.5,-102 1058.5,-96 1058.5,-96 1058.5,-84 1058.5,-84 1058.5,-78 1064.5,-72 1070.5,-72 1070.5,-72 1100.5,-72 1100.5,-72 1106.5,-72 1112.5,-78 1112.5,-84 1112.5,-84 1112.5,-96 1112.5,-96 1112.5,-102 1106.5,-108 1100.5,-108"/>
<text text-anchor="middle" x="1085.5" y="-87.5" font-family="sans" font-size="10.00" fill="#000000">multiqc</text>
</g>
<!-- 1&#45;&gt;0 -->
<g id="edge2" class="edge">
<title>1&#45;&gt;0</title>
<path fill="none" stroke="#c0c0c0" stroke-width="2" d="M1112.7436,-86.6239C1207.1897,-74.9197 1520.6963,-36.0686 1629.1761,-22.6253"/>
<polygon fill="#c0c0c0" stroke="#c0c0c0" stroke-width="2" points="1629.8218,-26.0722 1639.3154,-21.3688 1628.9608,-19.1253 1629.8218,-26.0722"/>
</g>
<!-- 2 -->
<g id="node3" class="node">
<title>2</title>
<path fill="none" stroke="#b6d856" stroke-width="2" d="M139,-180C139,-180 12,-180 12,-180 6,-180 0,-174 0,-168 0,-168 0,-156 0,-156 0,-150 6,-144 12,-144 12,-144 139,-144 139,-144 145,-144 151,-150 151,-156 151,-156 151,-168 151,-168 151,-174 145,-180 139,-180"/>
<text text-anchor="middle" x="75.5" y="-159.5" font-family="sans" font-size="10.00" fill="#000000">picard_collect_wgs_metrics</text>
</g>
<!-- 2&#45;&gt;1 -->
<g id="edge6" class="edge">
<title>2&#45;&gt;1</title>
<path fill="none" stroke="#c0c0c0" stroke-width="2" d="M151.4015,-145.3362C154.4684,-144.8502 157.51,-144.4015 160.5,-144 336.6308,-120.3464 897.7648,-97.2979 1048.1289,-91.4296"/>
<polygon fill="#c0c0c0" stroke="#c0c0c0" stroke-width="2" points="1048.3778,-94.9227 1058.2343,-91.037 1048.1059,-87.9279 1048.3778,-94.9227"/>
</g>
<!-- 3 -->
<g id="node4" class="node">
<title>3</title>
<path fill="none" stroke="#d87556" stroke-width="2" d="M325.5,-180C325.5,-180 181.5,-180 181.5,-180 175.5,-180 169.5,-174 169.5,-168 169.5,-168 169.5,-156 169.5,-156 169.5,-150 175.5,-144 181.5,-144 181.5,-144 325.5,-144 325.5,-144 331.5,-144 337.5,-150 337.5,-156 337.5,-156 337.5,-168 337.5,-168 337.5,-174 331.5,-180 325.5,-180"/>
<text text-anchor="middle" x="253.5" y="-159.5" font-family="sans" font-size="10.00" fill="#000000">picard_collect_gc_bias_metrics</text>
</g>
<!-- 3&#45;&gt;1 -->
<g id="edge10" class="edge">
<title>3&#45;&gt;1</title>
<path fill="none" stroke="#c0c0c0" stroke-width="2" d="M337.5765,-145.2652C340.5841,-144.8138 343.5656,-144.3898 346.5,-144 613.9933,-108.4672 939.2913,-94.9092 1048.0675,-91.1709"/>
<polygon fill="#c0c0c0" stroke="#c0c0c0" stroke-width="2" points="1048.3272,-94.6642 1058.2038,-90.8296 1048.0916,-87.6682 1048.3272,-94.6642"/>
</g>
<!-- 4 -->
<g id="node5" class="node">
<title>4</title>
<path fill="none" stroke="#d8c356" stroke-width="2" d="M435,-180C435,-180 368,-180 368,-180 362,-180 356,-174 356,-168 356,-168 356,-156 356,-156 356,-150 362,-144 368,-144 368,-144 435,-144 435,-144 441,-144 447,-150 447,-156 447,-156 447,-168 447,-168 447,-174 441,-180 435,-180"/>
<text text-anchor="middle" x="401.5" y="-159.5" font-family="sans" font-size="10.00" fill="#000000">samtools_stats</text>
</g>
<!-- 4&#45;&gt;1 -->
<g id="edge15" class="edge">
<title>4&#45;&gt;1</title>
<path fill="none" stroke="#c0c0c0" stroke-width="2" d="M447.2549,-145.9304C450.0271,-145.212 452.7902,-144.5596 455.5,-144 570.0484,-120.3469 930.4268,-98.6549 1048,-92.0486"/>
<polygon fill="#c0c0c0" stroke="#c0c0c0" stroke-width="2" points="1048.4973,-95.5264 1058.2866,-91.4744 1048.107,-88.5373 1048.4973,-95.5264"/>
</g>
<!-- 5 -->
<g id="node6" class="node">
<title>5</title>
<path fill="none" stroke="#d85656" stroke-width="2" d="M686,-180C686,-180 477,-180 477,-180 471,-180 465,-174 465,-168 465,-168 465,-156 465,-156 465,-150 471,-144 477,-144 477,-144 686,-144 686,-144 692,-144 698,-150 698,-156 698,-156 698,-168 698,-168 698,-174 692,-180 686,-180"/>
<text text-anchor="middle" x="581.5" y="-159.5" font-family="sans" font-size="10.00" fill="#000000">picard_collect_alignment_summary_metrics</text>
</g>
<!-- 5&#45;&gt;1 -->
<g id="edge9" class="edge">
<title>5&#45;&gt;1</title>
<path fill="none" stroke="#c0c0c0" stroke-width="2" d="M698.2716,-145.1793C701.041,-144.7822 703.787,-144.3886 706.5,-144 831.7135,-126.0644 980.2212,-104.9513 1048.1836,-95.2981"/>
<polygon fill="#c0c0c0" stroke="#c0c0c0" stroke-width="2" points="1048.9752,-98.7208 1058.3837,-93.8494 1047.9909,-91.7904 1048.9752,-98.7208"/>
</g>
<!-- 6 -->
<g id="node7" class="node">
<title>6</title>
<path fill="none" stroke="#61d856" stroke-width="2" d="M793,-180C793,-180 728,-180 728,-180 722,-180 716,-174 716,-168 716,-168 716,-156 716,-156 716,-150 722,-144 728,-144 728,-144 793,-144 793,-144 799,-144 805,-150 805,-156 805,-156 805,-168 805,-168 805,-174 799,-180 793,-180"/>
<text text-anchor="middle" x="760.5" y="-159.5" font-family="sans" font-size="10.00" fill="#000000">mosdepth_bed</text>
</g>
<!-- 6&#45;&gt;1 -->
<g id="edge8" class="edge">
<title>6&#45;&gt;1</title>
<path fill="none" stroke="#c0c0c0" stroke-width="2" d="M805.159,-146.6352C808.3072,-145.6997 811.4434,-144.8106 814.5,-144 896.9259,-122.1419 995.5422,-104.6035 1048.1259,-95.9244"/>
<polygon fill="#c0c0c0" stroke="#c0c0c0" stroke-width="2" points="1049.0138,-99.3258 1058.3181,-94.2582 1047.8844,-92.4175 1049.0138,-99.3258"/>
</g>
<!-- 7 -->
<g id="node8" class="node">
<title>7</title>
<path fill="none" stroke="#56d8d0" stroke-width="2" d="M983.5,-180C983.5,-180 835.5,-180 835.5,-180 829.5,-180 823.5,-174 823.5,-168 823.5,-168 823.5,-156 823.5,-156 823.5,-150 829.5,-144 835.5,-144 835.5,-144 983.5,-144 983.5,-144 989.5,-144 995.5,-150 995.5,-156 995.5,-156 995.5,-168 995.5,-168 995.5,-174 989.5,-180 983.5,-180"/>
<text text-anchor="middle" x="909.5" y="-159.5" font-family="sans" font-size="10.00" fill="#000000">picard_collect_multiple_metrics</text>
</g>
<!-- 7&#45;&gt;1 -->
<g id="edge5" class="edge">
<title>7&#45;&gt;1</title>
<path fill="none" stroke="#c0c0c0" stroke-width="2" d="M953.9122,-143.8314C983.3352,-131.7947 1021.4556,-116.2 1049.087,-104.8962"/>
<polygon fill="#c0c0c0" stroke="#c0c0c0" stroke-width="2" points="1050.4615,-108.1156 1058.3917,-101.0898 1047.811,-101.6367 1050.4615,-108.1156"/>
</g>
<!-- 8 -->
<g id="node9" class="node">
<title>8</title>
<path fill="none" stroke="#56d8b9" stroke-width="2" d="M1067,-180C1067,-180 1026,-180 1026,-180 1020,-180 1014,-174 1014,-168 1014,-168 1014,-156 1014,-156 1014,-150 1020,-144 1026,-144 1026,-144 1067,-144 1067,-144 1073,-144 1079,-150 1079,-156 1079,-156 1079,-168 1079,-168 1079,-174 1073,-180 1067,-180"/>
<text text-anchor="middle" x="1046.5" y="-159.5" font-family="sans" font-size="10.00" fill="#000000">mosdepth</text>
</g>
<!-- 8&#45;&gt;1 -->
<g id="edge16" class="edge">
<title>8&#45;&gt;1</title>
<path fill="none" stroke="#c0c0c0" stroke-width="2" d="M1056.3413,-143.8314C1060.6957,-135.7925 1065.9098,-126.1666 1070.7169,-117.2918"/>
<polygon fill="#c0c0c0" stroke="#c0c0c0" stroke-width="2" points="1073.8408,-118.8732 1075.5261,-108.4133 1067.6857,-115.5392 1073.8408,-118.8732"/>
</g>
<!-- 9 -->
<g id="node10" class="node">
<title>9</title>
<path fill="none" stroke="#56a9d8" stroke-width="2" d="M1139.5,-180C1139.5,-180 1109.5,-180 1109.5,-180 1103.5,-180 1097.5,-174 1097.5,-168 1097.5,-168 1097.5,-156 1097.5,-156 1097.5,-150 1103.5,-144 1109.5,-144 1109.5,-144 1139.5,-144 1139.5,-144 1145.5,-144 1151.5,-150 1151.5,-156 1151.5,-156 1151.5,-168 1151.5,-168 1151.5,-174 1145.5,-180 1139.5,-180"/>
<text text-anchor="middle" x="1124.5" y="-159.5" font-family="sans" font-size="10.00" fill="#000000">fastqc</text>
</g>
<!-- 9&#45;&gt;1 -->
<g id="edge12" class="edge">
<title>9&#45;&gt;1</title>
<path fill="none" stroke="#c0c0c0" stroke-width="2" d="M1114.6587,-143.8314C1110.3043,-135.7925 1105.0902,-126.1666 1100.2831,-117.2918"/>
<polygon fill="#c0c0c0" stroke="#c0c0c0" stroke-width="2" points="1103.3143,-115.5392 1095.4739,-108.4133 1097.1592,-118.8732 1103.3143,-115.5392"/>
</g>
<!-- 10 -->
<g id="node11" class="node">
<title>10</title>
<path fill="none" stroke="#56c1d8" stroke-width="2" d="M1341.5,-180C1341.5,-180 1181.5,-180 1181.5,-180 1175.5,-180 1169.5,-174 1169.5,-168 1169.5,-168 1169.5,-156 1169.5,-156 1169.5,-150 1175.5,-144 1181.5,-144 1181.5,-144 1341.5,-144 1341.5,-144 1347.5,-144 1353.5,-150 1353.5,-156 1353.5,-156 1353.5,-168 1353.5,-168 1353.5,-174 1347.5,-180 1341.5,-180"/>
<text text-anchor="middle" x="1261.5" y="-159.5" font-family="sans" font-size="10.00" fill="#000000">picard_collect_insert_size_metrics</text>
</g>
<!-- 10&#45;&gt;1 -->
<g id="edge11" class="edge">
<title>10&#45;&gt;1</title>
<path fill="none" stroke="#c0c0c0" stroke-width="2" d="M1217.0878,-143.8314C1187.6648,-131.7947 1149.5444,-116.2 1121.913,-104.8962"/>
<polygon fill="#c0c0c0" stroke="#c0c0c0" stroke-width="2" points="1123.189,-101.6367 1112.6083,-101.0898 1120.5385,-108.1156 1123.189,-101.6367"/>
</g>
<!-- 11 -->
<g id="node12" class="node">
<title>11</title>
<path fill="none" stroke="#d8ac56" stroke-width="2" d="M1503,-180C1503,-180 1384,-180 1384,-180 1378,-180 1372,-174 1372,-168 1372,-168 1372,-156 1372,-156 1372,-150 1378,-144 1384,-144 1384,-144 1503,-144 1503,-144 1509,-144 1515,-150 1515,-156 1515,-156 1515,-168 1515,-168 1515,-174 1509,-180 1503,-180"/>
<text text-anchor="middle" x="1443.5" y="-159.5" font-family="sans" font-size="10.00" fill="#000000">picard_collect_hs_metrics</text>
</g>
<!-- 11&#45;&gt;1 -->
<g id="edge13" class="edge">
<title>11&#45;&gt;1</title>
<path fill="none" stroke="#c0c0c0" stroke-width="2" d="M1371.9682,-145.9977C1368.7699,-145.3158 1365.6025,-144.647 1362.5,-144 1276.8399,-126.1359 1175.8851,-106.9156 1122.6656,-96.9257"/>
<polygon fill="#c0c0c0" stroke="#c0c0c0" stroke-width="2" points="1123.1504,-93.4557 1112.6768,-95.0539 1121.8611,-100.336 1123.1504,-93.4557"/>
</g>
<!-- 12 -->
<g id="node13" class="node">
<title>12</title>
<path fill="none" stroke="#d88d56" stroke-width="2" d="M1706,-180C1706,-180 1545,-180 1545,-180 1539,-180 1533,-174 1533,-168 1533,-168 1533,-156 1533,-156 1533,-150 1539,-144 1545,-144 1545,-144 1706,-144 1706,-144 1712,-144 1718,-150 1718,-156 1718,-156 1718,-168 1718,-168 1718,-174 1712,-180 1706,-180"/>
<text text-anchor="middle" x="1625.5" y="-159.5" font-family="sans" font-size="10.00" fill="#000000">picard_collect_duplication_metrics</text>
</g>
<!-- 12&#45;&gt;1 -->
<g id="edge14" class="edge">
<title>12&#45;&gt;1</title>
<path fill="none" stroke="#c0c0c0" stroke-width="2" d="M1532.9683,-145.4546C1529.7754,-144.9526 1526.6121,-144.4661 1523.5,-144 1375.5066,-121.8342 1198.3822,-102.0585 1122.7218,-93.9281"/>
<polygon fill="#c0c0c0" stroke="#c0c0c0" stroke-width="2" points="1123.0485,-90.4432 1112.7328,-92.8591 1122.3036,-97.4034 1123.0485,-90.4432"/>
</g>
<!-- 13 -->
<g id="node14" class="node">
<title>13</title>
<path fill="none" stroke="#ced856" stroke-width="2" d="M1843,-180C1843,-180 1748,-180 1748,-180 1742,-180 1736,-174 1736,-168 1736,-168 1736,-156 1736,-156 1736,-150 1742,-144 1748,-144 1748,-144 1843,-144 1843,-144 1849,-144 1855,-150 1855,-156 1855,-156 1855,-168 1855,-168 1855,-174 1849,-180 1843,-180"/>
<text text-anchor="middle" x="1795.5" y="-159.5" font-family="sans" font-size="10.00" fill="#000000">rseqc_inner_distance</text>
</g>
<!-- 13&#45;&gt;1 -->
<g id="edge4" class="edge">
<title>13&#45;&gt;1</title>
<path fill="none" stroke="#c0c0c0" stroke-width="2" d="M1735.7972,-145.7576C1732.6634,-145.1145 1729.5506,-144.5224 1726.5,-144 1499.2182,-105.0759 1221.58,-93.812 1122.6669,-90.9107"/>
<polygon fill="#c0c0c0" stroke="#c0c0c0" stroke-width="2" points="1122.6723,-87.4096 1112.5775,-90.6259 1122.4748,-94.4068 1122.6723,-87.4096"/>
</g>
<!-- 14 -->
<g id="node15" class="node">
<title>14</title>
<path fill="none" stroke="#97d856" stroke-width="2" d="M2013.5,-180C2013.5,-180 1885.5,-180 1885.5,-180 1879.5,-180 1873.5,-174 1873.5,-168 1873.5,-168 1873.5,-156 1873.5,-156 1873.5,-150 1879.5,-144 1885.5,-144 1885.5,-144 2013.5,-144 2013.5,-144 2019.5,-144 2025.5,-150 2025.5,-156 2025.5,-156 2025.5,-168 2025.5,-168 2025.5,-174 2019.5,-180 2013.5,-180"/>
<text text-anchor="middle" x="1949.5" y="-159.5" font-family="sans" font-size="10.00" fill="#000000">rseqc_gene_body_coverage</text>
</g>
<!-- 14&#45;&gt;1 -->
<g id="edge7" class="edge">
<title>14&#45;&gt;1</title>
<path fill="none" stroke="#c0c0c0" stroke-width="2" d="M1873.1332,-145.3033C1870.2236,-144.8341 1867.3384,-144.3969 1864.5,-144 1580.9574,-104.3476 1235.0883,-93.3684 1122.6887,-90.7396"/>
<polygon fill="#c0c0c0" stroke="#c0c0c0" stroke-width="2" points="1122.6266,-87.2374 1112.55,-90.5106 1122.4684,-94.2356 1122.6266,-87.2374"/>
</g>
<!-- 15 -->
<g id="node16" class="node">
<title>15</title>
<path fill="none" stroke="#80d856" stroke-width="2" d="M1736.5,-108C1736.5,-108 1596.5,-108 1596.5,-108 1590.5,-108 1584.5,-102 1584.5,-96 1584.5,-96 1584.5,-84 1584.5,-84 1584.5,-78 1590.5,-72 1596.5,-72 1596.5,-72 1736.5,-72 1736.5,-72 1742.5,-72 1748.5,-78 1748.5,-84 1748.5,-84 1748.5,-96 1748.5,-96 1748.5,-102 1742.5,-108 1736.5,-108"/>
<text text-anchor="middle" x="1666.5" y="-87.5" font-family="sans" font-size="10.00" fill="#000000">gatk_calculate_contamination</text>
</g>
<!-- 15&#45;&gt;0 -->
<g id="edge1" class="edge">
<title>15&#45;&gt;0</title>
<path fill="none" stroke="#c0c0c0" stroke-width="2" d="M1666.5,-71.8314C1666.5,-64.131 1666.5,-54.9743 1666.5,-46.4166"/>
<polygon fill="#c0c0c0" stroke="#c0c0c0" stroke-width="2" points="1670.0001,-46.4132 1666.5,-36.4133 1663.0001,-46.4133 1670.0001,-46.4132"/>
</g>
<!-- 16 -->
<g id="node17" class="node">
<title>16</title>
<path fill="none" stroke="#56d89a" stroke-width="2" d="M2187,-180C2187,-180 2056,-180 2056,-180 2050,-180 2044,-174 2044,-168 2044,-168 2044,-156 2044,-156 2044,-150 2050,-144 2056,-144 2056,-144 2187,-144 2187,-144 2193,-144 2199,-150 2199,-156 2199,-156 2199,-168 2199,-168 2199,-174 2193,-180 2187,-180"/>
<text text-anchor="middle" x="2121.5" y="-159.5" font-family="sans" font-size="10.00" fill="#000000">gatk_get_pileup_summaries</text>
</g>
<!-- 16&#45;&gt;15 -->
<g id="edge17" class="edge">
<title>16&#45;&gt;15</title>
<path fill="none" stroke="#c0c0c0" stroke-width="2" d="M2043.766,-145.6169C2040.6398,-145.0532 2037.5421,-144.5116 2034.5,-144 1915.3011,-123.9521 1881.7691,-127.8283 1758.9721,-108.1802"/>
<polygon fill="#c0c0c0" stroke="#c0c0c0" stroke-width="2" points="1759.2269,-104.6759 1748.7957,-106.5312 1758.1071,-111.5858 1759.2269,-104.6759"/>
</g>
<!-- 17 -->
<g id="node18" class="node">
<title>17</title>
<path fill="none" stroke="#5673d8" stroke-width="2" d="M1808.5,-108C1808.5,-108 1778.5,-108 1778.5,-108 1772.5,-108 1766.5,-102 1766.5,-96 1766.5,-96 1766.5,-84 1766.5,-84 1766.5,-78 1772.5,-72 1778.5,-72 1778.5,-72 1808.5,-72 1808.5,-72 1814.5,-72 1820.5,-78 1820.5,-84 1820.5,-84 1820.5,-96 1820.5,-96 1820.5,-102 1814.5,-108 1808.5,-108"/>
<text text-anchor="middle" x="1793.5" y="-87.5" font-family="sans" font-size="10.00" fill="#000000">peddy</text>
</g>
<!-- 17&#45;&gt;0 -->
<g id="edge3" class="edge">
<title>17&#45;&gt;0</title>
<path fill="none" stroke="#c0c0c0" stroke-width="2" d="M1766.2553,-74.5542C1747.6732,-64.0195 1722.862,-49.9532 1702.6328,-38.4848"/>
<polygon fill="#c0c0c0" stroke="#c0c0c0" stroke-width="2" points="1704.125,-35.3074 1693.6996,-33.4203 1700.6727,-41.3969 1704.125,-35.3074"/>
</g>
</g>
</svg>
