<?xml version="1.0" encoding="UTF-8" standalone="no"?>
<!DOCTYPE svg PUBLIC "-//W3C//DTD SVG 1.1//EN"
 "http://www.w3.org/Graphics/SVG/1.1/DTD/svg11.dtd">
<!-- Generated by graphviz version 2.47.3 (20210619.2315)
 -->
<!-- Title: snakemake_dag Pages: 1 -->
<svg width="2074pt" height="237pt"
 viewBox="0.00 0.00 2074.00 237.00" xmlns="http://www.w3.org/2000/svg" xmlns:xlink="http://www.w3.org/1999/xlink">
<g id="graph0" class="graph" transform="scale(1 1) rotate(0) translate(4 233)">
<title>snakemake_dag</title>
<polygon fill="white" stroke="transparent" points="-4,4 -4,-233 2070,-233 2070,4 -4,4"/>
<!-- 0 -->
<g id="node1" class="node">
<title>0</title>
<path fill="none" stroke="#56a9d8" stroke-width="2" d="M1106,-36C1106,-36 1076,-36 1076,-36 1070,-36 1064,-30 1064,-24 1064,-24 1064,-12 1064,-12 1064,-6 1070,0 1076,0 1076,0 1106,0 1106,0 1112,0 1118,-6 1118,-12 1118,-12 1118,-24 1118,-24 1118,-30 1112,-36 1106,-36"/>
<text text-anchor="middle" x="1091" y="-15.5" font-family="sans" font-size="10.00">all</text>
</g>
<!-- 1 -->
<g id="node2" class="node">
<title>1</title>
<path fill="none" stroke="#d8cb56" stroke-width="2" d="M1106,-108C1106,-108 1076,-108 1076,-108 1070,-108 1064,-102 1064,-96 1064,-96 1064,-84 1064,-84 1064,-78 1070,-72 1076,-72 1076,-72 1106,-72 1106,-72 1112,-72 1118,-78 1118,-84 1118,-84 1118,-96 1118,-96 1118,-102 1112,-108 1106,-108"/>
<text text-anchor="middle" x="1091" y="-87.5" font-family="sans" font-size="10.00">multiqc</text>
</g>
<!-- 1&#45;&gt;0 -->
<g id="edge1" class="edge">
<title>1&#45;&gt;0</title>
<path fill="none" stroke="grey" stroke-width="2" d="M1091,-71.7C1091,-63.98 1091,-54.71 1091,-46.11"/>
<polygon fill="grey" stroke="grey" stroke-width="2" points="1094.5,-46.1 1091,-36.1 1087.5,-46.1 1094.5,-46.1"/>
</g>
<!-- 2 -->
<g id="node3" class="node">
<title>2</title>
<path fill="none" stroke="#56d0d8" stroke-width="2" d="M114,-229C114,-229 12,-229 12,-229 6,-229 0,-223 0,-217 0,-217 0,-156 0,-156 0,-150 6,-144 12,-144 12,-144 114,-144 114,-144 120,-144 126,-150 126,-156 126,-156 126,-217 126,-217 126,-223 120,-229 114,-229"/>
<text text-anchor="middle" x="63" y="-217" font-family="sans" font-size="10.00">fastqc</text>
<text text-anchor="middle" x="63" y="-206" font-family="sans" font-size="10.00">barcode: AAAA+CCCC</text>
<text text-anchor="middle" x="63" y="-195" font-family="sans" font-size="10.00">flowcell: 1</text>
<text text-anchor="middle" x="63" y="-184" font-family="sans" font-size="10.00">lane: 1</text>
<text text-anchor="middle" x="63" y="-173" font-family="sans" font-size="10.00">read: fastq1</text>
<text text-anchor="middle" x="63" y="-162" font-family="sans" font-size="10.00">sample: HD832.HES45</text>
<text text-anchor="middle" x="63" y="-151" font-family="sans" font-size="10.00">type: T</text>
</g>
<!-- 2&#45;&gt;1 -->
<g id="edge2" class="edge">
<title>2&#45;&gt;1</title>
<path fill="none" stroke="grey" stroke-width="2" d="M126.28,-146.98C129.18,-145.87 132.1,-144.86 135,-144 311.6,-91.47 899.2,-90.17 1053.58,-90.77"/>
<polygon fill="grey" stroke="grey" stroke-width="2" points="1053.92,-94.27 1063.94,-90.82 1053.95,-87.27 1053.92,-94.27"/>
</g>
<!-- 3 -->
<g id="node4" class="node">
<title>3</title>
<path fill="none" stroke="#56d0d8" stroke-width="2" d="M258,-229C258,-229 156,-229 156,-229 150,-229 144,-223 144,-217 144,-217 144,-156 144,-156 144,-150 150,-144 156,-144 156,-144 258,-144 258,-144 264,-144 270,-150 270,-156 270,-156 270,-217 270,-217 270,-223 264,-229 258,-229"/>
<text text-anchor="middle" x="207" y="-217" font-family="sans" font-size="10.00">fastqc</text>
<text text-anchor="middle" x="207" y="-206" font-family="sans" font-size="10.00">barcode: AAAA+CCCC</text>
<text text-anchor="middle" x="207" y="-195" font-family="sans" font-size="10.00">flowcell: 1</text>
<text text-anchor="middle" x="207" y="-184" font-family="sans" font-size="10.00">lane: 1</text>
<text text-anchor="middle" x="207" y="-173" font-family="sans" font-size="10.00">read: fastq2</text>
<text text-anchor="middle" x="207" y="-162" font-family="sans" font-size="10.00">sample: HD832.HES45</text>
<text text-anchor="middle" x="207" y="-151" font-family="sans" font-size="10.00">type: T</text>
</g>
<!-- 3&#45;&gt;1 -->
<g id="edge3" class="edge">
<title>3&#45;&gt;1</title>
<path fill="none" stroke="grey" stroke-width="2" d="M270.3,-147.01C273.19,-145.89 276.1,-144.88 279,-144 426.75,-99.26 914.06,-92.28 1053.45,-91.2"/>
<polygon fill="grey" stroke="grey" stroke-width="2" points="1053.65,-94.7 1063.62,-91.13 1053.6,-87.7 1053.65,-94.7"/>
</g>
<!-- 4 -->
<g id="node5" class="node">
<title>4</title>
<path fill="none" stroke="#56d892" stroke-width="2" d="M509.5,-207C509.5,-207 300.5,-207 300.5,-207 294.5,-207 288.5,-201 288.5,-195 288.5,-195 288.5,-178 288.5,-178 288.5,-172 294.5,-166 300.5,-166 300.5,-166 509.5,-166 509.5,-166 515.5,-166 521.5,-172 521.5,-178 521.5,-178 521.5,-195 521.5,-195 521.5,-201 515.5,-207 509.5,-207"/>
<text text-anchor="middle" x="405" y="-195" font-family="sans" font-size="10.00">picard_collect_alignment_summary_metrics</text>
<text text-anchor="middle" x="405" y="-184" font-family="sans" font-size="10.00">sample: HD832.HES45</text>
<text text-anchor="middle" x="405" y="-173" font-family="sans" font-size="10.00">type: T</text>
</g>
<!-- 4&#45;&gt;1 -->
<g id="edge4" class="edge">
<title>4&#45;&gt;1</title>
<path fill="none" stroke="grey" stroke-width="2" d="M455.07,-165.99C477.64,-157.95 504.83,-149.3 530,-144 724.3,-103.12 963.14,-93.75 1053.76,-91.62"/>
<polygon fill="grey" stroke="grey" stroke-width="2" points="1053.89,-95.12 1063.82,-91.4 1053.74,-88.12 1053.89,-95.12"/>
</g>
<!-- 5 -->
<g id="node6" class="node">
<title>5</title>
<path fill="none" stroke="#d85656" stroke-width="2" d="M712.5,-207C712.5,-207 551.5,-207 551.5,-207 545.5,-207 539.5,-201 539.5,-195 539.5,-195 539.5,-178 539.5,-178 539.5,-172 545.5,-166 551.5,-166 551.5,-166 712.5,-166 712.5,-166 718.5,-166 724.5,-172 724.5,-178 724.5,-178 724.5,-195 724.5,-195 724.5,-201 718.5,-207 712.5,-207"/>
<text text-anchor="middle" x="632" y="-195" font-family="sans" font-size="10.00">picard_collect_duplication_metrics</text>
<text text-anchor="middle" x="632" y="-184" font-family="sans" font-size="10.00">sample: HD832.HES45</text>
<text text-anchor="middle" x="632" y="-173" font-family="sans" font-size="10.00">type: T</text>
</g>
<!-- 5&#45;&gt;1 -->
<g id="edge5" class="edge">
<title>5&#45;&gt;1</title>
<path fill="none" stroke="grey" stroke-width="2" d="M673.46,-165.8C691.42,-157.97 712.89,-149.53 733,-144 847.2,-112.59 987.33,-98.7 1053.28,-93.56"/>
<polygon fill="grey" stroke="grey" stroke-width="2" points="1053.88,-97.02 1063.59,-92.78 1053.35,-90.04 1053.88,-97.02"/>
</g>
<!-- 6 -->
<g id="node7" class="node">
<title>6</title>
<path fill="none" stroke="#68d856" stroke-width="2" d="M898,-207C898,-207 754,-207 754,-207 748,-207 742,-201 742,-195 742,-195 742,-178 742,-178 742,-172 748,-166 754,-166 754,-166 898,-166 898,-166 904,-166 910,-172 910,-178 910,-178 910,-195 910,-195 910,-201 904,-207 898,-207"/>
<text text-anchor="middle" x="826" y="-195" font-family="sans" font-size="10.00">picard_collect_gc_bias_metrics</text>
<text text-anchor="middle" x="826" y="-184" font-family="sans" font-size="10.00">sample: HD832.HES45</text>
<text text-anchor="middle" x="826" y="-173" font-family="sans" font-size="10.00">type: T</text>
</g>
<!-- 6&#45;&gt;1 -->
<g id="edge6" class="edge">
<title>6&#45;&gt;1</title>
<path fill="none" stroke="grey" stroke-width="2" d="M867.22,-165.82C883.21,-158.53 901.79,-150.47 919,-144 964.79,-126.8 1018.9,-110.82 1054.03,-100.99"/>
<polygon fill="grey" stroke="grey" stroke-width="2" points="1055.15,-104.32 1063.85,-98.27 1053.28,-97.57 1055.15,-104.32"/>
</g>
<!-- 7 -->
<g id="node8" class="node">
<title>7</title>
<path fill="none" stroke="#d87d56" stroke-width="2" d="M1059.5,-207C1059.5,-207 940.5,-207 940.5,-207 934.5,-207 928.5,-201 928.5,-195 928.5,-195 928.5,-178 928.5,-178 928.5,-172 934.5,-166 940.5,-166 940.5,-166 1059.5,-166 1059.5,-166 1065.5,-166 1071.5,-172 1071.5,-178 1071.5,-178 1071.5,-195 1071.5,-195 1071.5,-201 1065.5,-207 1059.5,-207"/>
<text text-anchor="middle" x="1000" y="-195" font-family="sans" font-size="10.00">picard_collect_hs_metrics</text>
<text text-anchor="middle" x="1000" y="-184" font-family="sans" font-size="10.00">sample: HD832.HES45</text>
<text text-anchor="middle" x="1000" y="-173" font-family="sans" font-size="10.00">type: T</text>
</g>
<!-- 7&#45;&gt;1 -->
<g id="edge7" class="edge">
<title>7&#45;&gt;1</title>
<path fill="none" stroke="grey" stroke-width="2" d="M1018.86,-165.92C1032.99,-151.24 1052.43,-131.05 1067.57,-115.34"/>
<polygon fill="grey" stroke="grey" stroke-width="2" points="1070.19,-117.65 1074.61,-108.02 1065.15,-112.8 1070.19,-117.65"/>
</g>
<!-- 8 -->
<g id="node9" class="node">
<title>8</title>
<path fill="none" stroke="#b6d856" stroke-width="2" d="M1262,-207C1262,-207 1102,-207 1102,-207 1096,-207 1090,-201 1090,-195 1090,-195 1090,-178 1090,-178 1090,-172 1096,-166 1102,-166 1102,-166 1262,-166 1262,-166 1268,-166 1274,-172 1274,-178 1274,-178 1274,-195 1274,-195 1274,-201 1268,-207 1262,-207"/>
<text text-anchor="middle" x="1182" y="-195" font-family="sans" font-size="10.00">picard_collect_insert_size_metrics</text>
<text text-anchor="middle" x="1182" y="-184" font-family="sans" font-size="10.00">sample: HD832.HES45</text>
<text text-anchor="middle" x="1182" y="-173" font-family="sans" font-size="10.00">type: T</text>
</g>
<!-- 8&#45;&gt;1 -->
<g id="edge8" class="edge">
<title>8&#45;&gt;1</title>
<path fill="none" stroke="grey" stroke-width="2" d="M1163.14,-165.92C1149.01,-151.24 1129.57,-131.05 1114.43,-115.34"/>
<polygon fill="grey" stroke="grey" stroke-width="2" points="1116.85,-112.8 1107.39,-108.02 1111.81,-117.65 1116.85,-112.8"/>
</g>
<!-- 9 -->
<g id="node10" class="node">
<title>9</title>
<path fill="none" stroke="#d8a456" stroke-width="2" d="M1452,-207C1452,-207 1304,-207 1304,-207 1298,-207 1292,-201 1292,-195 1292,-195 1292,-178 1292,-178 1292,-172 1298,-166 1304,-166 1304,-166 1452,-166 1452,-166 1458,-166 1464,-172 1464,-178 1464,-178 1464,-195 1464,-195 1464,-201 1458,-207 1452,-207"/>
<text text-anchor="middle" x="1378" y="-195" font-family="sans" font-size="10.00">picard_collect_multiple_metrics</text>
<text text-anchor="middle" x="1378" y="-184" font-family="sans" font-size="10.00">sample: HD832.HES45</text>
<text text-anchor="middle" x="1378" y="-173" font-family="sans" font-size="10.00">type: T</text>
</g>
<!-- 9&#45;&gt;1 -->
<g id="edge9" class="edge">
<title>9&#45;&gt;1</title>
<path fill="none" stroke="grey" stroke-width="2" d="M1336.43,-165.81C1319.99,-158.43 1300.81,-150.31 1283,-144 1230.04,-125.23 1166.96,-108.94 1127.95,-99.54"/>
<polygon fill="grey" stroke="grey" stroke-width="2" points="1128.63,-96.1 1118.09,-97.19 1127,-102.91 1128.63,-96.1"/>
</g>
<!-- 10 -->
<g id="node11" class="node">
<title>10</title>
<path fill="none" stroke="#56d8b9" stroke-width="2" d="M1621.5,-207C1621.5,-207 1494.5,-207 1494.5,-207 1488.5,-207 1482.5,-201 1482.5,-195 1482.5,-195 1482.5,-178 1482.5,-178 1482.5,-172 1488.5,-166 1494.5,-166 1494.5,-166 1621.5,-166 1621.5,-166 1627.5,-166 1633.5,-172 1633.5,-178 1633.5,-178 1633.5,-195 1633.5,-195 1633.5,-201 1627.5,-207 1621.5,-207"/>
<text text-anchor="middle" x="1558" y="-195" font-family="sans" font-size="10.00">picard_collect_wgs_metrics</text>
<text text-anchor="middle" x="1558" y="-184" font-family="sans" font-size="10.00">sample: HD832.HES45</text>
<text text-anchor="middle" x="1558" y="-173" font-family="sans" font-size="10.00">type: T</text>
</g>
<!-- 10&#45;&gt;1 -->
<g id="edge10" class="edge">
<title>10&#45;&gt;1</title>
<path fill="none" stroke="grey" stroke-width="2" d="M1524.27,-165.97C1509.06,-157.98 1490.59,-149.37 1473,-144 1350.51,-106.64 1197.81,-95.52 1128.43,-92.29"/>
<polygon fill="grey" stroke="grey" stroke-width="2" points="1128.17,-88.77 1118.02,-91.83 1127.86,-95.77 1128.17,-88.77"/>
</g>
<!-- 11 -->
<g id="node12" class="node">
<title>11</title>
<path fill="none" stroke="#56d86b" stroke-width="2" d="M1766,-207C1766,-207 1664,-207 1664,-207 1658,-207 1652,-201 1652,-195 1652,-195 1652,-178 1652,-178 1652,-172 1658,-166 1664,-166 1664,-166 1766,-166 1766,-166 1772,-166 1778,-172 1778,-178 1778,-178 1778,-195 1778,-195 1778,-201 1772,-207 1766,-207"/>
<text text-anchor="middle" x="1715" y="-195" font-family="sans" font-size="10.00">mosdepth</text>
<text text-anchor="middle" x="1715" y="-184" font-family="sans" font-size="10.00">sample: HD832.HES45</text>
<text text-anchor="middle" x="1715" y="-173" font-family="sans" font-size="10.00">type: T</text>
</g>
<!-- 11&#45;&gt;1 -->
<g id="edge11" class="edge">
<title>11&#45;&gt;1</title>
<path fill="none" stroke="grey" stroke-width="2" d="M1687.58,-165.98C1674.66,-157.78 1658.67,-149.01 1643,-144 1546.6,-113.19 1236.21,-97.24 1128.35,-92.52"/>
<polygon fill="grey" stroke="grey" stroke-width="2" points="1128.41,-89.02 1118.27,-92.09 1128.11,-96.01 1128.41,-89.02"/>
</g>
<!-- 12 -->
<g id="node13" class="node">
<title>12</title>
<path fill="none" stroke="#8fd856" stroke-width="2" d="M1910,-207C1910,-207 1808,-207 1808,-207 1802,-207 1796,-201 1796,-195 1796,-195 1796,-178 1796,-178 1796,-172 1802,-166 1808,-166 1808,-166 1910,-166 1910,-166 1916,-166 1922,-172 1922,-178 1922,-178 1922,-195 1922,-195 1922,-201 1916,-207 1910,-207"/>
<text text-anchor="middle" x="1859" y="-195" font-family="sans" font-size="10.00">mosdepth_bed</text>
<text text-anchor="middle" x="1859" y="-184" font-family="sans" font-size="10.00">sample: HD832.HES45</text>
<text text-anchor="middle" x="1859" y="-173" font-family="sans" font-size="10.00">type: T</text>
</g>
<!-- 12&#45;&gt;1 -->
<g id="edge12" class="edge">
<title>12&#45;&gt;1</title>
<path fill="none" stroke="grey" stroke-width="2" d="M1831.62,-165.84C1818.71,-157.61 1802.72,-148.85 1787,-144 1662.25,-105.49 1254.44,-94.26 1128.43,-91.67"/>
<polygon fill="grey" stroke="grey" stroke-width="2" points="1128.21,-88.16 1118.15,-91.46 1128.07,-95.16 1128.21,-88.16"/>
</g>
<!-- 13 -->
<g id="node14" class="node">
<title>13</title>
<path fill="none" stroke="#567bd8" stroke-width="2" d="M2054,-207C2054,-207 1952,-207 1952,-207 1946,-207 1940,-201 1940,-195 1940,-195 1940,-178 1940,-178 1940,-172 1946,-166 1952,-166 1952,-166 2054,-166 2054,-166 2060,-166 2066,-172 2066,-178 2066,-178 2066,-195 2066,-195 2066,-201 2060,-207 2054,-207"/>
<text text-anchor="middle" x="2003" y="-195" font-family="sans" font-size="10.00">samtools_stats</text>
<text text-anchor="middle" x="2003" y="-184" font-family="sans" font-size="10.00">sample: HD832.HES45</text>
<text text-anchor="middle" x="2003" y="-173" font-family="sans" font-size="10.00">type: T</text>
</g>
<!-- 13&#45;&gt;1 -->
<g id="edge13" class="edge">
<title>13&#45;&gt;1</title>
<path fill="none" stroke="grey" stroke-width="2" d="M1975.99,-165.96C1963.03,-157.65 1946.89,-148.79 1931,-144 1777.61,-97.73 1270.66,-91.84 1128.41,-91.1"/>
<polygon fill="grey" stroke="grey" stroke-width="2" points="1128.06,-87.6 1118.05,-91.06 1128.03,-94.6 1128.06,-87.6"/>
</g>
</g>
</svg>
